<svg xmlns="http://www.w3.org/2000/svg" version="1" width="466.667" height="482.667" viewBox="0 0 350.000000 362.000000"><path d="M169.495 0l27.833-14.706 32.924-6.505 48.198-2.545 1.246 23.76 60.11 25.144 9.406 79.407-5.94 196.22L59.804 362l-2.907 28.566-19.312 10.75-23.554 4.24L16.5 362 3.813 351.802l-3.33-8.232L54.63 178.648l18.863-126.35z" fill="#fff"/><path d="M-10.748 182.98l-7.92 180.15 29.414 9.052L16.5 362l-6.6-6c-3.7-3.2-7.2-7.3-7.9-9l-1.3-3.2 11.5-11.6c15.6-15.9 33-35.5 56.2-63.2 9-10.8 17-22.9 19.7-29.6 1.7-4.6 2.3-8 2.3-14.9 0-10.2-1.5-15.8-9.6-33.9-18.5-41.5-19.1-67-2.5-100.3 8.9-17.9 20.2-32.8 39.4-51.9 15.6-15.5 31.4-27.7 45.8-35.2l7.697-3.766 15.71-23.193-193.13 11.032z" fill="#cd3117"/><path d="M279.7 0c14.8 8.2 32.7 23.9 41.2 34.4 11.3 13.8 16.2 22.5 21.7 38.7 11.1 32.8 7.4 66.6-11.5 103.6-7.5 14.6-15 26-27.4 41.2-25.6 31.4-52.1 49.3-78.7 53.2-11.6 1.7-30.6.6-46.5-2.6-18.2-3.6-27.6-4.2-35-2-9.9 2.8-15.5 6.3-24.1 15-7.3 7.4-26.2 31.6-38.6 49.5-9.5 13.8-17.6 25.6-19.3 28.3l-1.7 2.7 12.73 51.195 321.31-46.67-9.9-201.364 1.698-183.828h-106.91z" fill="#24306f"/></svg>