<?xml version="1.0" encoding="UTF-8" standalone="no"?>
<svg
   xmlns:dc="http://purl.org/dc/elements/1.1/"
   xmlns:cc="http://creativecommons.org/ns#"
   xmlns:rdf="http://www.w3.org/1999/02/22-rdf-syntax-ns#"
   xmlns:svg="http://www.w3.org/2000/svg"
   xmlns="http://www.w3.org/2000/svg"
   xmlns:xlink="http://www.w3.org/1999/xlink"
   xmlns:sodipodi="http://sodipodi.sourceforge.net/DTD/sodipodi-0.dtd"
   xmlns:inkscape="http://www.inkscape.org/namespaces/inkscape"
   version="1"
   width="466.667"
   height="482.667"
   viewBox="0 0 350.000000 362.000000"
   id="svg3418"
   inkscape:version="0.91 r13725"
   sodipodi:docname="header-paddle.svg"
   inkscape:export-filename="/home/jared/Codes/porkchop/app/assets/images/header-paddle.png"
   inkscape:export-xdpi="90"
   inkscape:export-ydpi="90">
  <metadata
     id="metadata3430">
    <rdf:RDF>
      <cc:Work
         rdf:about="">
        <dc:format>image/svg+xml</dc:format>
        <dc:type
           rdf:resource="http://purl.org/dc/dcmitype/StillImage" />
      </cc:Work>
    </rdf:RDF>
  </metadata>
  <defs
     id="defs3428">
    <linearGradient
       inkscape:collect="always"
       id="linearGradient5809">
      <stop
         style="stop-color:#2277ff;stop-opacity:1"
         offset="0"
         id="stop5811" />
      <stop
         id="stop5846"
         offset="0.25879678"
         style="stop-color:#4b5996;stop-opacity:1" />
      <stop
         id="stop5844"
         offset="0.39481348"
         style="stop-color:#e9380d;stop-opacity:1" />
      <stop
         style="stop-color:#ff3f6f;stop-opacity:1"
         offset="1"
         id="stop5813" />
    </linearGradient>
    <linearGradient
       inkscape:collect="always"
       xlink:href="#linearGradient5809"
       id="linearGradient5815"
       x1="64.70504"
       y1="473.03006"
       x2="323.52515"
       y2="49.005608"
       gradientUnits="userSpaceOnUse" />
  </defs>
  <sodipodi:namedview
     pagecolor="#ffffff"
     bordercolor="#666666"
     borderopacity="1"
     objecttolerance="10"
     gridtolerance="10"
     guidetolerance="10"
     inkscape:pageopacity="0"
     inkscape:pageshadow="2"
     inkscape:window-width="1920"
     inkscape:window-height="1080"
     id="namedview3426"
     showgrid="false"
     showguides="true"
     inkscape:zoom="0.72637318"
     inkscape:cx="-91.037473"
     inkscape:cy="53.984889"
     inkscape:window-x="0"
     inkscape:window-y="0"
     inkscape:window-maximized="0"
     inkscape:current-layer="svg3418">
    <inkscape:grid
       type="xygrid"
       id="grid3432" />
  </sodipodi:namedview>
  <path
     style="fill:url(#linearGradient5815);fill-opacity:1;fill-rule:evenodd;stroke:none;stroke-width:0.8180815px;stroke-linecap:butt;stroke-linejoin:miter;stroke-opacity:1"
     d="M 227.0625 -0.16601562 L 218 4.2675781 C 198.79999 14.267585 177.73361 30.532539 156.93359 51.199219 C 131.33358 76.665902 116.26707 96.533709 104.40039 120.40039 C 82.267044 164.80042 83.067687 198.79944 107.73438 254.13281 C 118.53438 278.26616 120.5332 285.73398 120.5332 299.33398 C 120.5332 308.53399 119.73347 313.06783 117.4668 319.20117 C 113.86679 328.13451 103.19923 344.26601 91.199219 358.66602 C 60.265865 395.59937 37.067592 421.73358 16.267578 442.93359 L 0.93359375 458.40039 L 2.6660156 462.66602 C 3.5993496 464.93268 8.2658819 470.39935 13.199219 474.66602 L 21.951172 482.62109 L 79.759766 482.62109 L 82 479.06641 C 84.266668 475.4664 95.0677 459.734 107.73438 441.33398 C 124.26772 417.4673 149.46588 385.20066 159.19922 375.33398 C 170.66589 363.73398 178.13398 359.06732 191.33398 355.33398 C 201.20066 352.40065 213.73332 353.2 238 358 C 259.20001 362.26667 284.53332 363.73347 300 361.4668 C 335.46669 356.26679 370.80024 332.3999 404.93359 290.5332 C 421.46694 270.26652 431.46679 255.06629 441.4668 235.59961 C 466.66681 186.26624 471.60079 141.20016 456.80078 97.466797 C 449.46744 75.866783 442.93386 64.2672 427.86719 45.867188 C 416.53385 31.867178 392.66694 10.933341 372.93359 0 L 372.92578 -0.16601562 L 227.0625 -0.16601562 z "
     transform="scale(0.74999951,0.74999951)"
     id="rect3453" />
</svg>
