<svg xmlns="http://www.w3.org/2000/svg" viewBox="0 0 350.000000 362.000000" height="482.667" width="466.667" version="1"><path fill="#fff" d="M.048.048h349.73V361.8H.047z"/><path d="M0 181v181h16.5l-6.6-6c-3.7-3.2-7.2-7.3-7.9-9l-1.3-3.2 11.5-11.6c15.6-15.9 33-35.5 56.2-63.2 9-10.8 17-22.9 19.7-29.6 1.7-4.6 2.3-8 2.3-14.9 0-10.2-1.5-15.8-9.6-33.9-18.5-41.5-19.1-67-2.5-100.3 8.9-17.9 20.2-32.8 39.4-51.9 15.6-15.5 31.4-27.7 45.8-35.2l6-3.2H0v181z" fill="#cd3117"/><path d="M279.5 1.2c14.8 8.2 32.9 22.7 41.4 33.2 11.3 13.8 16.2 22.5 21.7 38.7 11.1 32.8 7.4 66.6-11.5 103.6-7.5 14.6-15 26-27.4 41.2-25.6 31.4-52.1 49.3-78.7 53.2-11.6 1.7-30.6.6-46.5-2.6-18.2-3.6-27.6-4.2-35-2-9.9 2.8-15.5 6.3-24.1 15-7.3 7.4-26.2 31.6-38.6 49.5-9.5 13.8-17.6 25.6-19.3 28.3l-1.7 2.7H350V0h-36.2c-27.3.1-35.8.3-34.3 1.2z" fill="#2738a2"/></svg>